<?xml version="1.0" encoding="UTF-8" standalone="no"?>
<svg width="234px" height="32px" viewBox="0 0 234 32" version="1.1" xmlns="http://www.w3.org/2000/svg" xmlns:xlink="http://www.w3.org/1999/xlink" xmlns:sketch="http://www.bohemiancoding.com/sketch/ns">
    <!-- Generator: Sketch 3.5.2 (25235) - http://www.bohemiancoding.com/sketch -->
    <title>Page 1</title>
    <desc>Created with Sketch.</desc>
    <defs>
        <path id="path-1" d="M0,0 L233.771,0 L233.771,32 L0,32"></path>
    </defs>
    <g id="Page-1" stroke="none" stroke-width="1" fill="none" fill-rule="evenodd" sketch:type="MSPage">
        <g sketch:type="MSLayerGroup">
            <path d="M0,0.4523 L0,31.1863 L19.39,31.1863 L19.39,26.3953 L6.328,26.3953 L6.328,18.2593 L17.898,18.2593 L17.898,13.4693 L6.328,13.4693 L6.328,5.2433 L19.029,5.2433 L19.029,0.4523 L0,0.4523 Z" id="Fill-1" fill="#FFFFFF" sketch:type="MSShapeGroup"></path>
            <path d="M23.4585,0.4523 L23.4585,31.1863 L42.7585,31.1863 L42.7585,26.3953 L29.7865,26.3953 L29.7865,0.4523 L23.4585,0.4523 Z" id="Fill-2" fill="#FFFFFF" sketch:type="MSShapeGroup"></path>
            <g id="Group-18">
                <g id="Group-5">
                    <mask id="mask-2" sketch:name="Clip 4" fill="white">
                        <use xlink:href="#path-1"></use>
                    </mask>
                    <g id="Clip-4"></g>
                    <path d="M62.2392,23.6385 C62.2392,16.6775 44.6122,20.2485 44.6122,9.3105 C44.6122,4.3395 48.2732,-0.0005 56.2282,-0.0005 C63.8662,-0.0005 68.1602,4.4745 68.1602,9.3555 L61.5612,9.3555 C61.3352,6.7795 59.2562,4.2485 55.7302,4.2485 C52.4312,4.2485 50.8042,6.3725 50.8042,8.3165 C50.8042,14.8705 68.5672,11.4805 68.5672,22.2825 C68.5672,27.7965 64.2282,31.9995 56.5442,31.9995 C49.4932,31.9995 43.8892,28.1585 43.8892,21.5145 L50.5332,21.5145 C50.8042,24.9495 53.5612,27.6605 57.1322,27.6605 C60.0692,27.6605 62.2392,25.8085 62.2392,23.6385" id="Fill-3" fill="#FFFFFF" sketch:type="MSShapeGroup" mask="url(#mask-2)"></path>
                </g>
                <path d="M91.1214,31.1865 L71.7314,31.1865 L71.7314,0.4515 L90.7594,0.4515 L90.7594,5.2425 L78.0594,5.2425 L78.0594,13.4685 L89.6294,13.4685 L89.6294,18.2595 L78.0594,18.2595 L78.0594,26.3955 L91.1214,26.3955 L91.1214,31.1865 Z" id="Fill-6" fill="#FFFFFF" sketch:type="MSShapeGroup"></path>
                <path d="M113.3145,6.5536 C113.3145,7.3216 113.1795,8.2256 112.9525,9.2206 L107.9355,31.1866 L100.1625,31.1866 L92.9305,0.4516 L99.8005,0.4516 L104.0495,22.3726 C104.2305,23.4576 104.4105,24.1806 104.4105,25.3556 L104.7725,25.3556 C104.7725,24.1806 104.9535,23.4576 105.1795,22.3726 L110.1955,0.4516 L117.6085,0.4516 L122.5805,22.3276 C122.8065,23.3676 122.9875,24.1806 122.9875,25.3556 L123.3485,25.3556 C123.3485,24.1806 123.5295,23.3676 123.7105,22.3276 L128.0945,0.4516 L133.9705,0.4516 L126.8285,31.1866 L119.5515,31.1866 L114.0375,9.2206 C113.8115,8.2256 113.6765,7.3216 113.6765,6.5536 L113.3145,6.5536 Z" id="Fill-8" fill="#FFFFFF" sketch:type="MSShapeGroup"></path>
                <path d="M153.5871,18.2148 L142.1071,18.2148 L142.1071,31.1868 L135.7791,31.1868 L135.7791,0.4518 L142.1071,0.4518 L142.1071,13.4238 L153.5871,13.4238 L153.5871,0.4518 L159.9151,0.4518 L159.9151,31.1868 L153.5871,31.1868 L153.5871,18.2148 Z" id="Fill-10" fill="#FFFFFF" sketch:type="MSShapeGroup"></path>
                <path d="M183.3735,31.1865 L163.9835,31.1865 L163.9835,0.4515 L183.0115,0.4515 L183.0115,5.2425 L170.3115,5.2425 L170.3115,13.4685 L181.8815,13.4685 L181.8815,18.2595 L170.3115,18.2595 L170.3115,26.3955 L183.3735,26.3955 L183.3735,31.1865 Z" id="Fill-12" fill="#FFFFFF" sketch:type="MSShapeGroup"></path>
                <path d="M193.6792,14.4634 L199.7812,14.4634 C202.3122,14.4634 203.7582,12.4294 203.7582,9.6724 C203.7582,7.0054 202.3122,4.9714 199.6452,4.9714 L193.6792,4.9714 L193.6792,14.4634 Z M193.6792,18.8024 L193.6792,31.1864 L187.4422,31.1864 L187.4422,0.4524 L199.9622,0.4524 C206.9222,0.4524 210.3122,4.5654 210.3122,8.9044 C210.3122,12.7914 207.5552,16.3164 202.8092,16.7684 L202.8092,17.0394 C209.1822,19.7964 209.2722,26.8924 212.5722,31.1864 L205.5662,31.1864 C202.6732,26.8024 202.6732,18.8024 195.3522,18.8024 L193.6792,18.8024 Z" id="Fill-14" fill="#FFFFFF" sketch:type="MSShapeGroup"></path>
                <path d="M233.7709,31.1865 L214.3809,31.1865 L214.3809,0.4515 L233.4089,0.4515 L233.4089,5.2425 L220.7089,5.2425 L220.7089,13.4685 L232.2789,13.4685 L232.2789,18.2595 L220.7089,18.2595 L220.7089,26.3955 L233.7709,26.3955 L233.7709,31.1865 Z" id="Fill-16" fill="#FFFFFF" sketch:type="MSShapeGroup"></path>
            </g>
        </g>
    </g>
</svg>
