<?xml version="1.0" standalone="no"?>
<!DOCTYPE svg PUBLIC "-//W3C//DTD SVG 20010904//EN"
 "http://www.w3.org/TR/2001/REC-SVG-20010904/DTD/svg10.dtd">
<svg version="1.0" xmlns="http://www.w3.org/2000/svg"
 width="260.000000pt" height="260.000000pt" viewBox="0 0 260.000000 260.000000"
 preserveAspectRatio="xMidYMid meet">
<metadata>
Created by potrace 1.11, written by Peter Selinger 2001-2013
</metadata>
<g transform="translate(0.000000,260.000000) scale(0.100000,-0.100000)"
fill="#000000" stroke="none">
<path d="M1195 2095 c-5 -2 -44 -11 -85 -20 -297 -68 -535 -319 -594 -625 -22
-113 -19 -220 8 -348 17 -77 83 -214 140 -287 149 -192 362 -302 601 -310 149
-6 274 19 386 76 213 109 364 295 425 524 25 95 25 292 0 390 -74 285 -299
509 -581 580 -61 16 -270 30 -300 20z"/>
</g>
</svg>
